<svg xmlns="http://www.w3.org/2000/svg" width="1920" height="1080" viewBox="0 0 1920 1080">
  <defs>
    <marker id="arrow" markerWidth="12" markerHeight="12" refX="10" refY="4" orient="auto" markerUnits="strokeWidth">
      <path d="M0,0 L10,4 L0,8 Z" fill="#111827"/>
    </marker>
    <style>
      text {
        font-family: "Noto Sans CJK KR", "Noto Sans KR", "Apple SD Gothic Neo", "Inter", Arial, sans-serif;
        fill: #111827;
      }
      .title { font-size: 64px; font-weight: 800; }
      .subtitle { font-size: 18px; font-weight: 500; fill: #6b7280; }
      .section-title { font-size: 24px; font-weight: 700; }
      .box-title { font-size: 20px; font-weight: 700; }
      .box-small { font-size: 16px; font-weight: 600; }
      .note { font-size: 14px; font-weight: 500; fill: #6b7280; }
      .boundary { fill: none; stroke: #111827; stroke-width: 2.4; }
      .eks-boundary { fill: #fff7f0; stroke: #f97316; stroke-width: 2.4; }
      .vpc-boundary { fill: #faf7ff; stroke: #7c3aed; stroke-width: 2.2; }
      .private-zone { fill: #f1fefd; stroke: #5ad8cc; stroke-width: 1.6; }
      .soft-blue { fill: #f5fbff; stroke: #60a5fa; stroke-width: 1.5; stroke-dasharray: 7 6; }
      .soft-green { fill: #ebffee; stroke: #66d575; stroke-width: 1.5; }
      .card { fill: #ffffff; stroke: #94a3b8; stroke-width: 1.6; }
      .line { fill: none; stroke: #111827; stroke-width: 2; stroke-linecap: round; stroke-linejoin: round; marker-end: url(#arrow); }
      .plain-line { fill: none; stroke: #111827; stroke-width: 2; stroke-linecap: round; stroke-linejoin: round; }
      .thin-line { fill: none; stroke: #374151; stroke-width: 1.4; stroke-linecap: round; stroke-linejoin: round; marker-end: url(#arrow); }
      .rag-line { fill: none; stroke: #7c3aed; stroke-width: 2.4; stroke-linecap: round; stroke-linejoin: round; marker-end: url(#arrow); }
      .rag-card { fill: #f8f5ff; stroke: #7c3aed; stroke-width: 2; }
      .rag-note { font-size: 13px; font-weight: 600; fill: #5b21b6; }
      .badge-text { font-size: 12px; font-weight: 800; fill: #ffffff; }
    </style>
  </defs>

  <rect width="1920" height="1080" fill="#ffffff"/>

  <rect x="24" y="28" width="28" height="88" fill="#e95b12"/>
  <text x="76" y="94" class="title">아키텍처</text>
  <text x="78" y="128" class="subtitle">XFlow 현재 와이어프레임 정리본</text>

  <g id="left-user-and-sources">
    <rect x="72" y="180" width="160" height="74" rx="10" fill="#8b5cf6"/>
    <text x="152" y="224" text-anchor="middle" class="box-title" fill="#ffffff">CloudFront</text>

    <rect x="72" y="310" width="160" height="74" rx="10" fill="#8b5cf6"/>
    <text x="152" y="354" text-anchor="middle" class="box-title" fill="#ffffff">Route 53</text>

    <circle cx="152" cy="480" r="30" fill="#ffffff" stroke="#111827" stroke-width="4"/>
    <path d="M100 568 C110 516 194 516 204 568" fill="#ffffff" stroke="#111827" stroke-width="4"/>
    <text x="152" y="625" text-anchor="middle" class="section-title">User</text>

    <rect x="52" y="690" width="210" height="310" class="soft-blue"/>
    <text x="157" y="728" text-anchor="middle" class="section-title">Sources</text>

    <rect x="82" y="755" width="40" height="34" rx="7" fill="#0ea5e9"/>
    <text x="102" y="778" text-anchor="middle" class="box-small" fill="#ffffff">DB</text>
    <text x="142" y="778" class="box-small">MYSQL</text>

    <ellipse cx="102" cy="820" rx="20" ry="28" fill="#22c55e"/>
    <text x="142" y="828" class="box-small">MongoDB</text>

    <rect x="82" y="860" width="40" height="34" rx="7" fill="#ef4444"/>
    <text x="102" y="883" text-anchor="middle" class="box-small" fill="#ffffff">S3</text>
    <text x="142" y="883" class="box-small">S3</text>

    <rect x="82" y="915" width="40" height="34" rx="7" fill="#3b82f6"/>
    <text x="102" y="938" text-anchor="middle" class="box-small" fill="#ffffff">API</text>
    <text x="142" y="938" class="box-small">API</text>

    <circle cx="102" cy="975" r="6" fill="#111827"/>
    <circle cx="82" cy="990" r="6" fill="#111827"/>
    <circle cx="122" cy="990" r="6" fill="#111827"/>
    <path d="M102 981 L82 984 M102 981 L122 984" class="plain-line"/>
    <text x="142" y="996" class="box-small">Kafka</text>
  </g>

  <g id="aws">
    <rect x="360" y="120" width="1480" height="900" class="boundary"/>
    <rect x="376" y="136" width="52" height="30" rx="6" fill="#111827"/>
    <text x="402" y="157" text-anchor="middle" class="badge-text">AWS</text>

    <g id="s3-area">
      <rect x="460" y="160" width="310" height="180" class="card"/>
      <rect x="478" y="178" width="54" height="30" rx="6" fill="#16a34a"/>
      <text x="505" y="199" text-anchor="middle" class="badge-text">S3</text>

      <rect x="500" y="225" width="100" height="82" rx="8" class="card"/>
      <circle cx="550" cy="256" r="8" fill="#38bdf8"/>
      <ellipse cx="550" cy="256" rx="38" ry="12" fill="none" stroke="#38bdf8" stroke-width="4"/>
      <ellipse cx="550" cy="256" rx="38" ry="12" fill="none" stroke="#38bdf8" stroke-width="4" transform="rotate(60 550 256)"/>
      <ellipse cx="550" cy="256" rx="38" ry="12" fill="none" stroke="#38bdf8" stroke-width="4" transform="rotate(-60 550 256)"/>
      <text x="550" y="330" text-anchor="middle" class="box-small">React</text>

      <rect x="630" y="225" width="100" height="82" rx="8" class="card"/>
      <ellipse cx="680" cy="248" rx="28" ry="10" fill="#f5f3ff" stroke="#8b5cf6" stroke-width="4"/>
      <path d="M652 248 V286 C652 298 708 298 708 286 V248" fill="#f5f3ff" stroke="#8b5cf6" stroke-width="4"/>
      <text x="680" y="330" text-anchor="middle" class="box-small">Data Lake</text>
    </g>

    <g id="aws-managed-services">
      <rect x="1570" y="160" width="150" height="112" class="soft-blue"/>
      <rect x="1608" y="184" width="74" height="48" rx="8" fill="#10b981"/>
      <text x="1645" y="255" text-anchor="middle" class="box-small">Bedrock</text>

      <rect x="1570" y="302" width="150" height="112" class="soft-blue"/>
      <rect x="1608" y="326" width="74" height="48" rx="8" fill="#e91e63"/>
      <circle cx="1640" cy="350" r="14" fill="none" stroke="#ffffff" stroke-width="4"/>
      <line x1="1651" y1="361" x2="1664" y2="374" stroke="#ffffff" stroke-width="4"/>
      <text x="1645" y="397" text-anchor="middle" class="box-small">CloudWatch</text>
    </g>

    <g id="eks-vpc">
      <rect x="410" y="395" width="1370" height="570" class="eks-boundary"/>
      <rect x="426" y="412" width="52" height="30" rx="6" fill="#f97316"/>
      <text x="452" y="433" text-anchor="middle" class="badge-text">EKS</text>
      <text x="490" y="435" class="section-title" fill="#f97316">EKS</text>

      <rect x="485" y="455" width="1225" height="465" class="vpc-boundary"/>
      <rect x="502" y="472" width="52" height="30" rx="6" fill="#7c3aed"/>
      <text x="528" y="493" text-anchor="middle" class="badge-text">VPC</text>
      <text x="566" y="495" class="section-title" fill="#7c3aed">VPC</text>

      <rect x="740" y="490" width="880" height="390" class="private-zone"/>
      <rect x="758" y="508" width="50" height="28" rx="6" fill="#22c55e"/>
      <text x="783" y="528" text-anchor="middle" class="badge-text">LOCK</text>
      <text x="822" y="531" class="section-title">Private subnet</text>

      <rect x="540" y="640" width="170" height="210" class="soft-green"/>
      <rect x="558" y="660" width="50" height="28" rx="6" fill="#65a30d"/>
      <text x="583" y="680" text-anchor="middle" class="badge-text">LOCK</text>

      <rect x="575" y="704" width="100" height="54" rx="8" class="card"/>
      <text x="625" y="727" text-anchor="middle" class="box-small">NAT</text>
      <text x="625" y="748" text-anchor="middle" class="box-small">Gateway</text>

      <rect x="575" y="782" width="100" height="48" rx="8" class="card"/>
      <text x="625" y="812" text-anchor="middle" class="box-title">ALB</text>

      <rect x="765" y="535" width="145" height="180" class="soft-blue"/>
      <text x="838" y="565" text-anchor="middle" class="box-title">Query</text>
      <text x="838" y="590" text-anchor="middle" class="box-title">Engine</text>
      <rect x="790" y="615" width="95" height="74" rx="8" class="card"/>
      <rect x="800" y="625" width="42" height="24" rx="6" fill="#f97316"/>
      <text x="821" y="642" text-anchor="middle" class="badge-text">EKS</text>
      <text x="838" y="674" text-anchor="middle" class="box-title">Trino</text>

      <rect x="780" y="735" width="145" height="130" class="soft-blue"/>
      <text x="853" y="765" text-anchor="middle" class="box-title">API Server</text>
      <rect x="805" y="790" width="95" height="54" rx="8" class="card"/>
      <rect x="815" y="800" width="42" height="24" rx="6" fill="#f97316"/>
      <text x="836" y="817" text-anchor="middle" class="badge-text">EKS</text>
      <text x="853" y="836" text-anchor="middle" class="box-title">FastAPI</text>

      <rect x="965" y="535" width="330" height="180" class="soft-blue"/>
      <text x="988" y="565" class="box-title">Batch</text>
      <rect x="1010" y="600" width="95" height="74" rx="8" class="card"/>
      <rect x="1020" y="610" width="42" height="24" rx="6" fill="#f97316"/>
      <text x="1041" y="627" text-anchor="middle" class="badge-text">EKS</text>
      <text x="1058" y="657" text-anchor="middle" class="box-title">Airflow</text>
      <rect x="1160" y="600" width="95" height="74" rx="8" class="card"/>
      <rect x="1170" y="610" width="42" height="24" rx="6" fill="#f97316"/>
      <text x="1191" y="627" text-anchor="middle" class="badge-text">EKS</text>
      <text x="1208" y="657" text-anchor="middle" class="box-title">Spark</text>

      <rect x="1340" y="535" width="250" height="180" class="soft-blue"/>
      <text x="1362" y="565" class="box-title">Monitoring</text>
      <rect x="1375" y="600" width="88" height="74" rx="8" class="card"/>
      <rect x="1385" y="610" width="42" height="24" rx="6" fill="#f97316"/>
      <text x="1406" y="627" text-anchor="middle" class="badge-text">EKS</text>
      <text x="1419" y="657" text-anchor="middle" class="box-small">Grafana</text>
      <rect x="1480" y="600" width="88" height="74" rx="8" class="card"/>
      <rect x="1490" y="610" width="42" height="24" rx="6" fill="#f97316"/>
      <text x="1511" y="627" text-anchor="middle" class="badge-text">EKS</text>
      <text x="1524" y="657" text-anchor="middle" class="box-small">Loki</text>

      <rect x="1260" y="735" width="250" height="130" class="soft-blue"/>
      <rect x="1285" y="780" width="92" height="54" rx="8" class="card"/>
      <rect x="1295" y="790" width="42" height="24" rx="6" fill="#f97316"/>
      <text x="1316" y="807" text-anchor="middle" class="badge-text">EKS</text>
      <text x="1331" y="826" text-anchor="middle" class="box-small">MongoDB</text>
      <rect x="1395" y="780" width="92" height="54" rx="8" class="card"/>
      <rect x="1405" y="790" width="42" height="24" rx="6" fill="#f97316"/>
      <text x="1426" y="807" text-anchor="middle" class="badge-text">EKS</text>
      <text x="1441" y="826" text-anchor="middle" class="box-small">OpenSearch</text>

      <g id="metadata-rag-layer">
        <rect x="980" y="760" width="220" height="94" rx="12" class="rag-card"/>
        <rect x="998" y="778" width="54" height="28" rx="6" fill="#7c3aed"/>
        <text x="1025" y="798" text-anchor="middle" class="badge-text">RAG</text>
        <text x="1090" y="800" text-anchor="middle" class="box-title">Metadata RAG</text>
        <text x="1090" y="827" text-anchor="middle" class="rag-note">schema · lineage · metric</text>
        <text x="1090" y="846" text-anchor="middle" class="rag-note">chunk search + prompt context</text>
      </g>
    </g>
  </g>

  <g id="arrows">
    <line x1="152" y1="450" x2="152" y2="384" class="line"/>
    <line x1="152" y1="310" x2="152" y2="254" class="line"/>
    <line x1="232" y1="217" x2="460" y2="217" class="line"/>
    <path d="M232 347 H330 V806 H575" class="line"/>

    <line x1="262" y1="877" x2="540" y2="877" class="line"/>
    <line x1="262" y1="932" x2="575" y2="806" class="line"/>

    <line x1="675" y1="731" x2="765" y2="625" class="line"/>
    <line x1="675" y1="806" x2="780" y2="806" class="line"/>
    <path d="M680 340 V625 H765" class="line"/>
    <line x1="838" y1="715" x2="853" y2="735" class="line"/>
    <path d="M925 806 H1010 V674" class="line"/>
    <line x1="1105" y1="637" x2="1160" y2="637" class="line"/>
    <path d="M1208 674 V780 H1285" class="line"/>
    <line x1="925" y1="817" x2="1285" y2="817" class="line"/>
    <line x1="1377" y1="807" x2="1395" y2="807" class="plain-line"/>

    <path d="M900 817 H980" class="rag-line"/>
    <path d="M1200 790 H1285" class="rag-line"/>
    <path d="M1200 828 H1395" class="rag-line"/>
    <path d="M1090 760 V705 H838 V689" class="rag-line"/>
    <path d="M1200 778 H1540 V216 H1570" class="rag-line"/>

    <path d="M1487 807 H1720 V216 H1645" class="line"/>
    <path d="M1645 414 V600 H1463" class="line"/>
    <path d="M770 217 H1570" class="line"/>
    <path d="M1570 358 H770" class="line"/>
  </g>

  <g id="notes">
    <text x="615" y="366" text-anchor="middle" class="note">정적 웹 / 데이터 레이크</text>
    <text x="1130" y="742" text-anchor="middle" class="note">배치 처리 · ETL/ELT</text>
    <text x="1385" y="888" text-anchor="middle" class="note">메타데이터 원문 / 벡터 검색 인덱스</text>
    <text x="852" y="894" text-anchor="middle" class="note">API 요청 처리 · SQL 조회</text>
    <text x="1090" y="878" text-anchor="middle" class="note">자연어 질문을 SQL 생성용 컨텍스트로 변환</text>
  </g>

  <text x="1840" y="1048" text-anchor="end" class="note">Clean editable SVG with Metadata RAG for Figma import</text>
</svg>
