<svg xmlns="http://www.w3.org/2000/svg" width="1920" height="1080" viewBox="0 0 1920 1080">
  <defs>
    <marker id="arrow" markerWidth="10" markerHeight="10" refX="8" refY="3" orient="auto" markerUnits="strokeWidth">
      <path d="M0,0 L8,3 L0,6 Z" fill="#111111"/>
    </marker>
    <style>
      .title { font: 700 64px Arial, sans-serif; fill: #050505; }
      .label { font: 500 22px Arial, sans-serif; fill: #111111; }
      .small { font: 500 17px Arial, sans-serif; fill: #111111; }
      .tiny { font: 600 13px Arial, sans-serif; fill: #ffffff; }
      .box-text { font: 500 19px Arial, sans-serif; fill: #111111; }
      .panel-title { font: 500 25px Arial, sans-serif; fill: #111111; }
      .boundary { fill: none; stroke: #111827; stroke-width: 2.2; }
      .eks-boundary { fill: none; stroke: #e95520; stroke-width: 2.4; }
      .vpc-boundary { fill: none; stroke: #7c3aed; stroke-width: 2.2; }
      .dashed { fill: #f7fbff; stroke: #60a5fa; stroke-width: 1.6; stroke-dasharray: 4 4; }
      .service { fill: #ffffff; stroke: #64748b; stroke-width: 1.7; rx: 2; }
      .line { fill: none; stroke: #111111; stroke-width: 2; marker-end: url(#arrow); }
      .thin-line { fill: none; stroke: #111111; stroke-width: 1.5; marker-end: url(#arrow); }
      .no-arrow { fill: none; stroke: #111111; stroke-width: 2; }
    </style>
  </defs>

  <rect x="0" y="0" width="1920" height="1080" fill="#ffffff"/>

  <rect x="16" y="12" width="28" height="92" fill="#e94b10"/>
  <text x="72" y="77" class="title">아키텍처</text>

  <rect x="420" y="106" width="1450" height="925" class="boundary"/>
  <rect x="422" y="112" width="32" height="24" fill="#111827"/>
  <text x="458" y="134" class="label">AWS</text>

  <rect x="500" y="135" width="280" height="190" fill="#ffffff" stroke="#333333" stroke-width="1.8"/>
  <rect x="505" y="140" width="34" height="24" fill="#6dbb2f"/>
  <text x="544" y="163" class="label" fill="#2c8b12">S3</text>
  <circle cx="575" cy="220" r="38" fill="none" stroke="#2585f8" stroke-width="5"/>
  <ellipse cx="575" cy="220" rx="58" ry="20" fill="none" stroke="#2585f8" stroke-width="4" transform="rotate(60 575 220)"/>
  <ellipse cx="575" cy="220" rx="58" ry="20" fill="none" stroke="#2585f8" stroke-width="4" transform="rotate(-60 575 220)"/>
  <text x="545" y="304" class="box-text">React</text>
  <ellipse cx="690" cy="198" rx="30" ry="10" fill="none" stroke="#8b5cf6" stroke-width="4"/>
  <path d="M660 198 V250 C660 263 720 263 720 250 V198" fill="none" stroke="#8b5cf6" stroke-width="4"/>
  <path d="M680 215 C695 203 707 229 722 216" fill="none" stroke="#8b5cf6" stroke-width="3"/>
  <path d="M680 235 C695 223 707 249 722 236" fill="none" stroke="#8b5cf6" stroke-width="3"/>
  <text x="650" y="304" class="box-text">Data Lake</text>

  <rect x="441" y="380" width="1392" height="600" class="eks-boundary"/>
  <rect x="444" y="386" width="35" height="30" fill="#f97316"/>
  <text x="484" y="412" class="panel-title" fill="#e95520">EKS</text>

  <rect x="512" y="430" width="1280" height="512" class="vpc-boundary"/>
  <rect x="515" y="436" width="34" height="25" fill="#7c3aed"/>
  <text x="554" y="460" class="panel-title" fill="#7c3aed">VPC</text>

  <rect x="795" y="455" width="860" height="500" fill="#effdf8"/>
  <rect x="795" y="455" width="860" height="500" fill="none" stroke="#effdf8" stroke-width="1"/>
  <rect x="797" y="458" width="30" height="30" fill="#16a34a"/>
  <text x="834" y="483" class="panel-title">Private subnet</text>

  <rect x="540" y="690" width="215" height="285" fill="#eef8e8"/>
  <rect x="543" y="694" width="31" height="31" fill="#5ca12b"/>
  <g transform="translate(616 740)">
    <path d="M0 25 H55 M27 0 V55" stroke="#f97316" stroke-width="7" stroke-linecap="round"/>
    <path d="M14 25 C14 12 41 12 41 25 C41 38 14 38 14 25" fill="none" stroke="#f97316" stroke-width="4"/>
  </g>
  <text x="626" y="815" class="box-text">NAT</text>
  <text x="604" y="842" class="box-text">Gateway</text>
  <circle cx="650" cy="883" r="27" fill="#f97316" stroke="#c2410c" stroke-width="2"/>
  <path d="M650 864 L633 895 H667 Z" fill="none" stroke="#ffffff" stroke-width="4"/>
  <text x="626" y="944" class="box-text">ALB</text>

  <rect x="815" y="492" width="145" height="230" class="dashed"/>
  <text x="860" y="525" class="box-text">Query</text>
  <text x="855" y="552" class="box-text">Engine</text>
  <rect x="842" y="560" width="100" height="150" class="service"/>
  <rect x="850" y="568" width="34" height="32" fill="#f97316"/>
  <circle cx="892" cy="654" r="22" fill="#f8fafc" stroke="#111111" stroke-width="1.5"/>
  <path d="M874 633 C857 612 865 596 883 616" stroke="#ec4899" stroke-width="5" fill="none" stroke-linecap="round"/>
  <path d="M908 633 C927 610 920 595 901 616" stroke="#ec4899" stroke-width="5" fill="none" stroke-linecap="round"/>
  <text x="870" y="705" class="box-text">Trino</text>

  <rect x="832" y="760" width="145" height="215" class="dashed"/>
  <text x="872" y="792" class="box-text">API</text>
  <text x="856" y="819" class="box-text">Server</text>
  <rect x="860" y="825" width="100" height="135" class="service"/>
  <rect x="868" y="833" width="34" height="32" fill="#f97316"/>
  <circle cx="910" cy="904" r="25" fill="#009688"/>
  <path d="M918 883 L895 910 H910 L901 928 L927 897 H912 Z" fill="#ffffff"/>
  <text x="872" y="954" class="box-text">FastAPI</text>

  <rect x="985" y="482" width="350" height="240" class="dashed"/>
  <text x="995" y="512" class="panel-title">Batch</text>
  <rect x="1030" y="525" width="95" height="155" class="service"/>
  <rect x="1038" y="532" width="34" height="32" fill="#f97316"/>
  <path d="M1066 605 L1098 570 L1120 602 L1088 640 Z" fill="#00a7a5"/>
  <path d="M1066 605 L1038 642 L1088 640 Z" fill="#2563eb"/>
  <path d="M1098 570 L1128 548 L1120 602 Z" fill="#fb923c"/>
  <text x="1043" y="672" class="box-text">Airflow</text>
  <rect x="1188" y="525" width="95" height="155" class="service"/>
  <rect x="1196" y="532" width="34" height="32" fill="#f97316"/>
  <text x="1206" y="615" font-family="Arial, sans-serif" font-size="30" font-weight="700" fill="#111111">Spark</text>
  <path d="M1260 570 L1272 586 L1291 579 L1278 596 L1290 614 L1271 607 L1258 625 L1260 604 L1241 598 L1260 592 Z" fill="#f97316"/>
  <text x="1210" y="670" class="box-text">Spark</text>

  <rect x="1375" y="482" width="275" height="240" class="dashed"/>
  <text x="1386" y="512" class="panel-title">Monitoring</text>
  <rect x="1418" y="525" width="95" height="155" class="service"/>
  <rect x="1426" y="532" width="34" height="32" fill="#f97316"/>
  <circle cx="1465" cy="602" r="30" fill="#f97316"/>
  <circle cx="1465" cy="602" r="16" fill="#ffffff"/>
  <circle cx="1472" cy="596" r="10" fill="#f97316"/>
  <text x="1430" y="670" class="box-text">Grafana</text>
  <rect x="1545" y="525" width="95" height="155" class="service"/>
  <rect x="1553" y="532" width="34" height="32" fill="#f97316"/>
  <path d="M1584 570 L1596 635" stroke="#f97316" stroke-width="6"/>
  <path d="M1602 570 L1614 635" stroke="#f97316" stroke-width="6"/>
  <path d="M1620 585 L1628 635" stroke="#f97316" stroke-width="6"/>
  <text x="1582" y="670" class="box-text">Loki</text>

  <rect x="1295" y="770" width="260" height="185" class="dashed"/>
  <rect x="1320" y="800" width="95" height="150" class="service"/>
  <rect x="1328" y="807" width="34" height="32" fill="#f97316"/>
  <circle cx="1368" cy="876" r="25" fill="#16a34a"/>
  <path d="M1368 858 C1359 872 1361 887 1368 894 C1375 887 1377 872 1368 858 Z" fill="#ffffff"/>
  <text x="1325" y="936" class="box-text">MongoDB</text>
  <rect x="1438" y="800" width="95" height="150" class="service"/>
  <rect x="1446" y="807" width="34" height="32" fill="#f97316"/>
  <path d="M1484 858 C1515 858 1525 890 1498 912 C1473 930 1448 905 1460 882" fill="#0f766e"/>
  <path d="M1495 850 C1525 865 1524 900 1495 918" fill="#1d4ed8"/>
  <text x="1460" y="922" class="box-text">Open</text>
  <text x="1455" y="948" class="box-text">Search</text>

  <rect x="1540" y="122" width="150" height="122" class="dashed"/>
  <rect x="1580" y="132" width="62" height="62" fill="#059669"/>
  <path d="M1607 144 C1590 151 1590 170 1607 177 C1625 170 1625 151 1607 144 Z" fill="none" stroke="#ffffff" stroke-width="4"/>
  <text x="1577" y="232" class="box-text">Bedrock</text>

  <rect x="1540" y="255" width="150" height="122" class="dashed"/>
  <rect x="1580" y="267" width="62" height="62" fill="#ec4899"/>
  <circle cx="1608" cy="300" r="22" fill="none" stroke="#ffffff" stroke-width="4"/>
  <path d="M1624 316 L1638 330" stroke="#ffffff" stroke-width="5"/>
  <text x="1555" y="365" class="box-text">Cloudwatch</text>

  <rect x="185" y="535" width="160" height="495" class="dashed"/>
  <text x="215" y="565" class="panel-title">Sources</text>
  <ellipse cx="264" cy="600" rx="25" ry="12" fill="#0ea5e9"/>
  <path d="M239 600 V640 C239 652 289 652 289 640 V600" fill="#0ea5e9"/>
  <text x="226" y="665" class="box-text">MYSQL</text>
  <circle cx="264" cy="710" r="24" fill="#16a34a"/>
  <path d="M264 688 C252 706 254 724 264 733 C274 724 276 706 264 688 Z" fill="#ffffff"/>
  <text x="215" y="760" class="box-text">MongoDB</text>
  <path d="M238 790 L264 775 L291 790 V828 L264 844 L238 828 Z" fill="#e11d21"/>
  <text x="251" y="870" class="box-text">S3</text>
  <path d="M264 895 L293 913 V949 L264 968 L235 949 V913 Z" fill="#1d4ed8"/>
  <text x="248" y="936" class="tiny">API</text>
  <text x="248" y="995" class="box-text">API</text>
  <circle cx="264" cy="1010" r="9" fill="#111111"/>
  <circle cx="240" cy="1037" r="9" fill="#111111"/>
  <circle cx="288" cy="1037" r="9" fill="#111111"/>
  <path d="M264 1019 L240 1028 M264 1019 L288 1028 M240 1046 L264 1062 M288 1046 L264 1062" stroke="#111111" stroke-width="5"/>
  <text x="240" y="1072" class="box-text">Kafka</text>

  <rect x="238" y="145" width="74" height="70" fill="#8b5cf6"/>
  <circle cx="275" cy="180" r="28" fill="none" stroke="#ffffff" stroke-width="3"/>
  <circle cx="275" cy="148" r="5" fill="#ffffff"/>
  <circle cx="247" cy="195" r="5" fill="#ffffff"/>
  <circle cx="303" cy="195" r="5" fill="#ffffff"/>
  <path d="M275 153 L247 190 M275 153 L303 190 M247 195 H303" stroke="#ffffff" stroke-width="2"/>
  <rect x="238" y="284" width="74" height="70" fill="#8b5cf6"/>
  <path d="M250 312 L275 294 L300 312 L292 342 H258 Z" fill="none" stroke="#ffffff" stroke-width="3"/>
  <text x="265" y="327" class="tiny">53</text>
  <circle cx="273" cy="455" r="17" fill="#ffffff" stroke="#111111" stroke-width="4"/>
  <path d="M273 474 C248 474 236 494 236 520 H310 C310 494 298 474 273 474 Z" fill="#ffffff" stroke="#111111" stroke-width="4"/>
  <text x="238" y="555" class="box-text">User</text>

  <path d="M312 180 H500" class="line"/>
  <path d="M275 284 V215" class="line"/>
  <path d="M275 410 V354" class="line"/>
  <path d="M312 320 H380 V910 H610" class="line"/>
  <path d="M345 820 H610" class="line"/>
  <path d="M755 782 H832" class="line"/>
  <path d="M755 705 H815" class="line"/>
  <path d="M610 243 V640 H815" class="line"/>
  <path d="M890 722 V760" class="line"/>
  <path d="M977 875 H1295" class="line"/>
  <path d="M960 610 H985" class="line"/>
  <path d="M1125 602 H1188" class="line"/>
  <path d="M1240 680 V770" class="line"/>
  <path d="M1438 875 H1690 V175 H1642" class="line"/>
  <path d="M1690 300 V525 H1513" class="line"/>
  <path d="M780 175 H1540" class="line"/>
  <path d="M1540 205 H780" class="line"/>
</svg>
